<svg xmlns="http://www.w3.org/2000/svg" width="77.816" height="84.363" viewBox="0 0 77.816 84.363">
  <g id="_001-bag" data-name="001-bag" transform="translate(-17.385)">
    <path id="Path_66" data-name="Path 66" d="M94.107,28.48a4.235,4.235,0,0,0-3.165-1.38H72.864V16.571a16.571,16.571,0,1,0-33.143,0V27.1H21.639A4.217,4.217,0,0,0,17.4,31.744c1.26,13.837,2.542,28.365,3.921,44.413a5.937,5.937,0,0,0,4.451,5.11,152.218,152.218,0,0,0,30.517,3.1,152.218,152.218,0,0,0,30.519-3.1,5.936,5.936,0,0,0,4.449-5.11c1.376-16.023,2.659-30.551,3.921-44.412A4.218,4.218,0,0,0,94.107,28.48ZM42.735,16.571a13.558,13.558,0,1,1,27.117,0V27.1H42.735ZM86.2,78.315A149.2,149.2,0,0,1,56.293,81.35a149.2,149.2,0,0,1-29.909-3.035A2.947,2.947,0,0,1,24.327,75.9q-.333-3.877-.659-7.635A209.9,209.9,0,0,0,56.293,70.82a209.881,209.881,0,0,0,32.625-2.557q-.326,3.764-.659,7.634A2.947,2.947,0,0,1,86.2,78.315ZM92.181,31.47c-.81,8.9-1.628,18.069-2.474,27.733l-.041,0c-2.5.387-5.044.735-7.564,1.035a1.507,1.507,0,0,0,.176,3,1.53,1.53,0,0,0,.18-.011c2.324-.276,4.667-.6,6.979-.946q-.125,1.434-.251,2.882a206.633,206.633,0,0,1-65.786,0q-.126-1.449-.251-2.883A221.367,221.367,0,0,0,56.3,64.779q4.641,0,9.28-.193a1.506,1.506,0,1,0-.126-3.01A218.821,218.821,0,0,1,22.92,59.207l-.041,0c-.847-9.674-1.666-18.847-2.475-27.733a1.239,1.239,0,0,1,.3-.962,1.252,1.252,0,0,1,.937-.4H39.722v3.221a6.026,6.026,0,1,0,7.532,5.835,1.506,1.506,0,0,0-3.013,0,3.013,3.013,0,1,1-4.519-2.605v2.605a1.506,1.506,0,0,0,3.013,0V30.113H69.852v3.221a6.026,6.026,0,1,0,7.532,5.835,1.506,1.506,0,1,0-3.013,0,3.013,3.013,0,1,1-4.519-2.605v2.605a1.506,1.506,0,1,0,3.013,0V30.113H90.938a1.254,1.254,0,0,1,.941.4A1.239,1.239,0,0,1,92.181,31.47Z"/>
    <path id="Path_67" data-name="Path 67" d="M303.89,323.21c-1.49.135-3,.257-4.488.361a1.506,1.506,0,0,0,.1,3.009c.035,0,.071,0,.107,0,1.509-.106,3.04-.229,4.551-.366a1.506,1.506,0,1,0-.272-3Z" transform="translate(-227.772 -262.341)"/>
  </g>
</svg>
