<svg xmlns="http://www.w3.org/2000/svg" width="49.253" height="102.121" viewBox="0 0 49.253 102.121">
  <g id="_002-bag-1" data-name="002-bag-1" transform="translate(-132.532)">
    <g id="Group_70" data-name="Group 70" transform="translate(132.532)">
      <g id="Group_69" data-name="Group 69" transform="translate(0)">
        <path id="Path_68" data-name="Path 68" d="M180.289,41.066a1.5,1.5,0,0,0,1.5-1.5V34.539a4.805,4.805,0,0,0-4.8-4.8h-8.417V9.6h1.808a1.5,1.5,0,0,0,1.5-1.5V1.5a1.5,1.5,0,0,0-1.5-1.5H143.941a1.5,1.5,0,0,0-1.5,1.5V8.1a1.5,1.5,0,0,0,1.5,1.5h1.808V29.739h-8.417a4.805,4.805,0,0,0-4.8,4.8V90.714a4.807,4.807,0,0,0,3.3,4.56v5.352a1.5,1.5,0,0,0,1.5,1.5h6.609a1.5,1.5,0,0,0,1.5-1.5V95.514H168.88v5.112a1.5,1.5,0,0,0,1.5,1.5h6.609a1.5,1.5,0,0,0,1.5-1.5V95.274a4.807,4.807,0,0,0,3.3-4.56V45.548a1.5,1.5,0,1,0-2.992,0V90.714a1.81,1.81,0,0,1-1.8,1.808H137.321a1.81,1.81,0,0,1-1.8-1.808V34.539a1.81,1.81,0,0,1,1.808-1.808h5.113v2.536l-2.477,1.239a1.5,1.5,0,0,0-.827,1.338V51.061a1.5,1.5,0,0,0,1.5,1.5h6.609a1.5,1.5,0,0,0,1.5-1.5V37.844a1.5,1.5,0,0,0-.827-1.338l-2.477-1.239V32.731h31.548a1.81,1.81,0,0,1,1.808,1.808V39.57A1.5,1.5,0,0,0,180.289,41.066Zm-8.417,54.447h3.617V99.13h-3.617Zm-33.044,0h3.617V99.13h-3.617Zm6.921-56.746v10.8h-3.617v-10.8l1.808-.9Zm-.312-32.159V2.992h10.225v.156a1.5,1.5,0,1,0,2.992,0V2.992H168.88V6.609H145.437Zm20.138,23.131H148.741V9.6h16.834Z" transform="translate(-132.532)"/>
      </g>
    </g>
    <g id="Group_72" data-name="Group 72" transform="translate(150.99 41.588)">
      <g id="Group_71" data-name="Group 71" transform="translate(0)">
        <path id="Path_69" data-name="Path 69" d="M236.972,213.618l-4.673-4.673a1.5,1.5,0,0,0-2.116,0l-4.673,4.673a1.5,1.5,0,0,0,0,2.116l4.673,4.673a1.5,1.5,0,0,0,2.115,0l4.673-4.673a1.5,1.5,0,0,0,0-2.116Zm-5.731,3.615-2.557-2.557,2.557-2.558,2.557,2.557Z" transform="translate(-225.072 -208.507)"/>
      </g>
    </g>
    <g id="Group_74" data-name="Group 74" transform="translate(139.141 62.783)">
      <g id="Group_73" data-name="Group 73" transform="translate(0)">
        <path id="Path_70" data-name="Path 70" d="M200.2,314.769H167.161a1.5,1.5,0,0,0-1.5,1.5v6.6s0,0,0,0,0,0,0,0V339.4a1.5,1.5,0,0,0,1.5,1.5H200.2a1.5,1.5,0,0,0,1.5-1.5v-23.13A1.5,1.5,0,0,0,200.2,314.769Zm-1.5,23.13H168.657V324.37h3.617v1.808a1.5,1.5,0,0,0,2.992,0V324.37h23.443V337.9Zm0-16.521H168.657v-3.617h30.052v3.617Z" transform="translate(-165.665 -314.769)"/>
      </g>
    </g>
  </g>
</svg>
