<svg xmlns="http://www.w3.org/2000/svg" viewBox="0 0 314.03 83.94"><title>logo</title><g id="Layer_2" data-name="Layer 2"><g id="Layer_1-2" data-name="Layer 1"><path d="M62.06.88V2.14A8,8,0,0,0,59,4.56a15,15,0,0,0-2.48,5.07L45.45,45.57c-.47,0-1.2-.06-2.21-.06s-1.74,0-2.2.06L31.79,17.5,22.47,45.57c-.46,0-1.19-.06-2.2-.06s-1.74,0-2.2.06L4,6.17a7.37,7.37,0,0,0-1.83-3A3.58,3.58,0,0,0,0,2.14V.88c2.52.13,5.64.19,9.38.19q5.28,0,7.74-.19V2.14a2.26,2.26,0,0,0-2.2,2.45,10.59,10.59,0,0,0,.56,2.84l9.19,26.62L31,15.3,27.82,5.54A5.76,5.76,0,0,0,26.34,3a3.55,3.55,0,0,0-2-.85V.88q3.53.19,9,.19c4.11,0,7.14-.06,9.07-.19V2.14a9,9,0,0,0-3.28.53,1.8,1.8,0,0,0-1,1.8,9.57,9.57,0,0,0,.62,3L47.4,33.74l6-19a27.27,27.27,0,0,0,1.45-7.3,5.09,5.09,0,0,0-1.36-3.94,6.28,6.28,0,0,0-4.06-1.35V.88q4.29.19,7.81.19C59.19,1.07,60.81,1,62.06.88Z"/><path d="M97.56,43.18a3.57,3.57,0,0,0,2.08,1v1.26q-3.78-.2-9.57-.19-6.42,0-9.56.19V44.19a10.31,10.31,0,0,0,3.4-.6,1.69,1.69,0,0,0,1-1.67,8.78,8.78,0,0,0-.75-3L80.38,28.58H66.66L65,32.92a21.25,21.25,0,0,0-1.76,7,3.55,3.55,0,0,0,1.42,3.24,8.53,8.53,0,0,0,4.18,1v1.26q-4.27-.2-7.8-.19c-1.93,0-3.53.06-4.79.19V44.19q3.09-.57,5.42-6.61L76,.75c.46.05,1.19.07,2.2.07A21.14,21.14,0,0,0,80.38.75l15.3,39.41A7.8,7.8,0,0,0,97.56,43.18ZM79.94,27.32l-6.23-17-6.55,17Z"/><path d="M119.91,2.14a12.42,12.42,0,0,0-3.3.5,2.28,2.28,0,0,0-1.42,1.45,11.44,11.44,0,0,0-.38,3.46v32a9.79,9.79,0,0,0,.32,2.93,1.87,1.87,0,0,0,1.1,1.22,7.38,7.38,0,0,0,2.55.32h3.08a9.3,9.3,0,0,0,7.4-3.84A20.78,20.78,0,0,0,133.32,30h1.45c-.13,1.43-.19,3.28-.19,5.54a90.28,90.28,0,0,0,.44,10q-4.29-.2-14.42-.19-13.72,0-20.52.19V44.19a10.9,10.9,0,0,0,3.06-.51,2.17,2.17,0,0,0,1.32-1.44,12.5,12.5,0,0,0,.34-3.47V7.55a12.47,12.47,0,0,0-.34-3.46,2.2,2.2,0,0,0-1.32-1.45,11,11,0,0,0-3.06-.5V.88q3.21.19,10,.19,6.42,0,9.88-.19Z"/><path d="M176.37,6.45q6.1,5.58,6.11,16.21a23.42,23.42,0,0,1-3,12,20.19,20.19,0,0,1-8.63,8,29.54,29.54,0,0,1-13.43,2.84l-3.91-.07q-3.65-.12-5.28-.12-6.5,0-9.7.19V44.19a10.74,10.74,0,0,0,3.05-.51,2.16,2.16,0,0,0,1.33-1.44,12.5,12.5,0,0,0,.34-3.47V7.55a12.47,12.47,0,0,0-.34-3.46,2.19,2.19,0,0,0-1.33-1.45,10.81,10.81,0,0,0-3.05-.5V.88q2.64.19,7.62.19h2L150.63,1Q155.79.88,158,.88,170.26.88,176.37,6.45ZM155,2.45A2.5,2.5,0,0,0,153.65,4a11.49,11.49,0,0,0-.38,3.4V38.9a11.53,11.53,0,0,0,.38,3.4A2.48,2.48,0,0,0,155,43.87a7.55,7.55,0,0,0,3,.44q7.62,0,10.83-5.32T172,22.91q0-10.75-3.31-15.83T157.93,2A7.53,7.53,0,0,0,155,2.45Z"/><path d="M221.91,2.71a18.88,18.88,0,0,1,7.78,7.83,25.5,25.5,0,0,1,2.77,12.25,25.83,25.83,0,0,1-2.84,12.27,20.49,20.49,0,0,1-7.9,8.31,22.51,22.51,0,0,1-11.55,3,24.06,24.06,0,0,1-11.67-2.71,18.85,18.85,0,0,1-7.78-7.84A25.49,25.49,0,0,1,188,23.54a25.8,25.8,0,0,1,2.84-12.27A20.42,20.42,0,0,1,198.69,3a22.46,22.46,0,0,1,11.55-3A24.09,24.09,0,0,1,221.91,2.71Zm-18,1.22a18.53,18.53,0,0,0-4.06,7.84,42.43,42.43,0,0,0-1.42,11.52A37.58,37.58,0,0,0,200,34.81a18.68,18.68,0,0,0,4.34,7.68,8.48,8.48,0,0,0,6.07,2.7,8.16,8.16,0,0,0,6.11-2.8,18.49,18.49,0,0,0,4.06-7.83A42.83,42.83,0,0,0,222,23a37.49,37.49,0,0,0-1.61-11.52,18.66,18.66,0,0,0-4.34-7.68A8.5,8.5,0,0,0,210,1.13,8.19,8.19,0,0,0,203.88,3.93Z"/><path d="M279.48,42.68a10.56,10.56,0,0,1-3.66,2.8,11.89,11.89,0,0,1-4.72.85,9.65,9.65,0,0,1-5.76-1.54q-2.1-1.55-2.73-5.26l-1.14-6.29a23.74,23.74,0,0,0-2-6.77,4,4,0,0,0-3.87-2.17h-4.09V38.77a12.5,12.5,0,0,0,.34,3.47,2.2,2.2,0,0,0,1.29,1.44,10.67,10.67,0,0,0,3.09.51v1.26q-3.41-.2-9.51-.19-6.74,0-9.94.19V44.19a10.81,10.81,0,0,0,3-.51,2.17,2.17,0,0,0,1.32-1.44,12.42,12.42,0,0,0,.35-3.47V7.55a12.38,12.38,0,0,0-.35-3.46,2.2,2.2,0,0,0-1.32-1.45,10.88,10.88,0,0,0-3-.5V.88q3.21.19,9.57.19l7-.06c.84,0,1.81-.07,2.9-.07q8.69,0,13.06,2.84a9.09,9.09,0,0,1,4.37,8.12,11,11,0,0,1-3.27,7.86q-3.27,3.4-10.83,4.28,5.67.51,8.44,2.46a9.1,9.1,0,0,1,3.59,5.85l1.44,6.49a10.79,10.79,0,0,0,1.17,3.52,2.11,2.11,0,0,0,1.86,1,3,3,0,0,0,1.29-.38,6,6,0,0,0,1.22-1.07ZM252.94,2.58a2.45,2.45,0,0,0-1.1,1.57,13.71,13.71,0,0,0-.31,3.4V23h2.7c3.44,0,5.81-.92,7.09-2.74s1.92-4.4,1.92-7.71-.61-6-1.83-7.81-3.21-2.64-6-2.64A5.4,5.4,0,0,0,252.94,2.58Z"/><path d="M313.59,10.45a47,47,0,0,0,.19,4.78h-1.45q-1.26-7.11-3.77-10a8.85,8.85,0,0,0-7.06-2.89h-2.07a9.15,9.15,0,0,0-2.83.31,1.89,1.89,0,0,0-1.2,1.23,9.79,9.79,0,0,0-.32,2.93V22.66h2.21a5.84,5.84,0,0,0,5.07-2.45,15.4,15.4,0,0,0,2.42-5.86h1.45c-.13,1.76-.19,3.74-.19,5.92v3c0,2.14.12,5.12.38,8.94H305q-1.32-8.31-7.68-8.31h-2.21V38.4a9.3,9.3,0,0,0,.54,3.68,2.77,2.77,0,0,0,1.89,1.54,19.12,19.12,0,0,0,4.31.44v1.39q-7.74-.2-11.52-.19-3.15,0-7.93.12l-2,.07V44.19a10.81,10.81,0,0,0,3.05-.51,2.17,2.17,0,0,0,1.32-1.44,12.42,12.42,0,0,0,.35-3.47V7.55a12.38,12.38,0,0,0-.35-3.46,2.2,2.2,0,0,0-1.32-1.45,10.88,10.88,0,0,0-3.05-.5V.88q6.79.19,20.52.19,9.24,0,13.15-.19Q313.6,6.24,313.59,10.45Z"/><path d="M84.15,67.46V83.94H82.47V70.13L76.76,83.94h-1.5L69.53,70.18V83.94h-1.7V67.46h2L76,81.87l6.17-14.41Z"/><path d="M102.3,79.83H94.64l-1.53,4.11h-1.8l6.22-16.46h1.88l6.21,16.46h-1.81Zm-.5-1.33-3.32-9.08L95.11,78.5Z"/><path d="M125.36,83.94h-1.7l-9.22-14.07V83.94h-1.69V67.12h1.69l9.22,14.1V67.12h1.7Z"/><path d="M146.26,67.1V83.94h-1.67V76h-9.12v8h-1.7V67.1h1.7v7.48h9.12V67.1Z"/><path d="M164.42,79.83h-7.67l-1.53,4.11h-1.79l6.21-16.46h1.89l6.21,16.46h-1.81Zm-.5-1.33-3.32-9.08-3.37,9.08Z"/><path d="M184.73,67.1v1.36h-4.8V83.94h-1.67V68.46h-4.78V67.1Z"/><path d="M201.62,67.1v1.36h-4.8V83.94h-1.67V68.46h-4.78V67.1Z"/><path d="M218.37,79.83H210.7l-1.53,4.11h-1.79l6.21-16.46h1.89l6.21,16.46h-1.82Zm-.5-1.33-3.32-9.08-3.37,9.08Z"/><path d="M241.42,83.94h-1.69l-9.22-14.07V83.94h-1.7V67.12h1.7l9.22,14.1V67.12h1.69Z"/></g></g></svg>