<svg xmlns="http://www.w3.org/2000/svg" width="71.597" height="63.693" viewBox="0 0 71.597 63.693">
  <g id="purse" transform="translate(0.3 -28.199)">
    <g id="Group_77" data-name="Group 77" transform="translate(0 28.499)">
      <g id="Group_76" data-name="Group 76" transform="translate(0 0)">
        <path id="Path_71" data-name="Path 71" d="M67.877,54.845H66.838V40.631a6.594,6.594,0,0,0-6.587-6.587H31.689L12.419,28.539l-.017,0-.017-.005-.035-.007-.054-.011-.048-.006-.056-.005h-.1l-.043,0-.059.006-.04.007-.06.012-.037.01-.06.019-.034.013-.06.025-.031.015c-.02.01-.039.02-.058.031l-.029.018c-.019.012-.037.024-.055.036l-.027.021c-.017.013-.034.027-.05.041l-.027.025c-.015.014-.03.029-.045.044l-.026.03c-.013.015-.026.03-.039.046l-.026.035c-.011.015-.022.031-.032.047s-.017.028-.024.042-.017.031-.025.047-.015.031-.022.047-.014.031-.02.047-.012.034-.018.052-.008.022-.011.033,0,.011,0,.017,0,.011-.005.017L9.936,34.044H6.587A6.594,6.594,0,0,0,0,40.609c0,.007,0,.015,0,.022V76.684a1.04,1.04,0,1,0,2.08,0V45.428a6.561,6.561,0,0,0,4.507,1.79H60.255a4.512,4.512,0,0,1,4.5,4.507v7.281H53.314c-.03,0-.06,0-.09,0s-.066.008-.1.014l-.014,0c-.027.005-.054.013-.08.02l-.017,0c-.024.007-.046.016-.069.025l-.026.01c-.019.008-.038.017-.056.026l-.036.017-.042.025-.046.028-.029.021c-.018.013-.036.025-.053.039l-.021.019c-.018.016-.036.031-.054.049s-.019.021-.029.032-.027.029-.04.044-.042.053-.06.082v0L46.9,67.789a1.024,1.024,0,0,0-.1.183c-.01.024-.018.048-.026.072,0,.007-.005.014-.008.022-.008.026-.014.052-.019.077,0,.007,0,.013,0,.02,0,.023-.008.047-.011.07s0,.02,0,.03,0,.038,0,.058,0,.029,0,.044,0,.029,0,.043,0,.04,0,.059,0,.019,0,.029.006.048.011.071c0,.007,0,.013,0,.019.006.026.012.052.02.078l.008.022c.008.024.016.048.026.072a1.036,1.036,0,0,0,.1.183l5.546,8.319h0a1.075,1.075,0,0,0,.073.1l.026.029q.026.029.055.056l.034.031c.02.017.041.034.063.049l.029.021a1.041,1.041,0,0,0,.1.059l.026.012c.027.013.054.026.082.037l.033.012q.04.014.081.025l.034.009c.028.007.057.012.086.016l.031,0a1.047,1.047,0,0,0,.109.007h11.45v7.281a4.512,4.512,0,0,1-4.507,4.507H6.588a4.512,4.512,0,0,1-4.507-4.507c0-.005,0-.011,0-.016V80.845a1.04,1.04,0,0,0-2.08,0v4.161c0,.011,0,.021,0,.032a6.594,6.594,0,0,0,6.586,6.555H60.252a6.594,6.594,0,0,0,6.587-6.586h0V77.725h1.039A3.123,3.123,0,0,0,71,74.605V57.964A3.124,3.124,0,0,0,67.877,54.845Zm-55-24.011,18.351,5.243h0l12.3,3.514H10.693ZM64.758,46.927a6.561,6.561,0,0,0-4.507-1.79H6.587a4.507,4.507,0,1,1,0-9.014H9.416l-.867,3.468H6.588a1.04,1.04,0,1,0,0,2.08H58.863a1.04,1.04,0,1,0,0-2.08H51.106L38.969,36.124H60.251a4.512,4.512,0,0,1,4.507,4.507ZM68.917,74.6h0a1.041,1.041,0,0,1-1.039,1.039h-14L49.02,68.365l4.853-7.28h14l.043,0a3.108,3.108,0,0,0,1-.178V74.6ZM67.877,59H66.838v-2.08h1.039a1.039,1.039,0,0,1,0,2.079Z" transform="translate(0 -28.499)" stroke="#000" stroke-width="0.6"/>
      </g>
    </g>
    <g id="Group_79" data-name="Group 79" transform="translate(53.664 64.552)">
      <g id="Group_78" data-name="Group 78" transform="translate(0 0)">
        <path id="Path_72" data-name="Path 72" d="M390.812,288.493a3.813,3.813,0,1,0,3.813,3.813A3.818,3.818,0,0,0,390.812,288.493Zm0,5.547a1.733,1.733,0,1,1,1.733-1.733A1.735,1.735,0,0,1,390.812,294.04Z" transform="translate(-386.999 -288.493)" stroke="#000" stroke-width="0.6"/>
      </g>
    </g>
  </g>
</svg>
