<svg xmlns="http://www.w3.org/2000/svg" width="13.964" height="15.659" viewBox="0 0 13.964 15.659">
  <g id="Group_49" data-name="Group 49" transform="translate(-12.1 -7.5)">
    <path id="Path_62" data-name="Path 62" d="M25.6,9.176H22.25l-.166-1.013a.808.808,0,0,0-.792-.663H16.927a.775.775,0,0,0-.774.663l-.166,1.013H12.561a.461.461,0,1,0,0,.921h.995l.792,11.919a1.252,1.252,0,0,0,1.271,1.142h6.927a1.239,1.239,0,0,0,1.271-1.142L24.609,10.1H25.6a.461.461,0,1,0,0-.921Zm-8.548-.755h4.127l.129.755H16.927Zm5.84,13.54a.35.35,0,0,1-.368.276H15.619a.365.365,0,0,1-.368-.276l-.774-11.845h9.211Z" fill="#fc7ca0"/>
    <path id="Path_63" data-name="Path 63" d="M48.568,38.711a.37.37,0,0,0,.368-.368V29.868a.368.368,0,1,0-.737,0v8.474A.37.37,0,0,0,48.568,38.711Z" transform="translate(-29.45 -17.947)" fill="#fc7ca0"/>
    <path id="Path_64" data-name="Path 64" d="M59.544,38.711h0a.371.371,0,0,0,.387-.35l.368-8.474a.369.369,0,0,0-.737-.037l-.368,8.474A.359.359,0,0,0,59.544,38.711Z" transform="translate(-38.417 -17.947)" fill="#fc7ca0"/>
    <path id="Path_65" data-name="Path 65" d="M35.931,38.7h0a.374.374,0,0,0,.368-.387l-.368-8.474a.369.369,0,0,0-.737.037l.368,8.474A.354.354,0,0,0,35.931,38.7Z" transform="translate(-18.838 -17.941)" fill="#fc7ca0"/>
  </g>
</svg>
